# xmcd
#
# Track frame offsets: 
#        150
#        10425
#        28112
#        48510
#        53395
#        67876
#        71833
#        92201
#        94201
#        106488
#        120765
#        128915
#        147471
#        165470
#        179455
#        182958
#        202080
#        210483
#        225266
#        243326
#        255322
#        269882
#        282547
#        295036
#
# Disc length: 3985 seconds
#
# Revision: 0
# Processed by: cddbd v1.5.2PL0 Copyright (c) Steve Scherf et al.
# Submitted via: ExactAudioCopy v0.95b4
#
DISCID=650f8f18
DTITLE=Krüger Brothers - Carolina Scrapbook Vol.2 [CD3]
DYEAR=2005
DGENRE=Bluegrass
TTITLE0=Going Down
TTITLE1=Colorado Bound
TTITLE2=One Little Sip
TTITLE3=Freude, Schöner Götterfunken
TTITLE4=Jesse Polka
TTITLE5=Wayne's Chicken Joke (Wayne Henderson)
TTITLE6=Otto Wood
TTITLE7=Sweden
TTITLE8=Hei Vaan (Way Downtown)
TTITLE9=Peach Picking Time in Georgia
TTITLE10=Dunmore Lasses
TTITLE11=Minnesota State Song
TTITLE12=Cannonball Rag
TTITLE13=Intro to The Flume
TTITLE14=Si's Triple Talk (Si Kahn)
TTITLE15=Whiskey in the Jar
TTITLE16=Clint's Wood Cutting Joke (Clint Howard)
TTITLE17=Rolling Mountain Blues
TTITLE18=I Don't Look Good Naked Anymore
TTITLE19=Guitar Rag
TTITLE20=Randy Sheppard's Intro (Just Hangin' Round)
TTITLE21=The Beautiful Land
TTITLE22=Chinese Showboat
TTITLE23=Goodbye Lightning
EXTD=
EXTT0=
EXTT1=
EXTT2=
EXTT3=
EXTT4=
EXTT5=
EXTT6=
EXTT7=
EXTT8=
EXTT9=
EXTT10=
EXTT11=
EXTT12=
EXTT13=
EXTT14=
EXTT15=
EXTT16=
EXTT17=
EXTT18=
EXTT19=
EXTT20=
EXTT21=
EXTT22=
EXTT23=
PLAYORDER=
